<?xml version="1.0" encoding="utf-8"?>
<!-- Generator: Adobe Illustrator 23.0.1, SVG Export Plug-In . SVG Version: 6.00 Build 0)  -->
<svg version="1.1" id="Layer_1" xmlns="http://www.w3.org/2000/svg" xmlns:xlink="http://www.w3.org/1999/xlink" x="0px" y="0px"
	 viewBox="0 0 36 16.4" style="enable-background:new 0 0 36 16.4;" xml:space="preserve">
<style type="text/css">
	.st0{clip-path:url(#SVGID_2_);fill:#D57E7A;}
</style>
<g>
	<defs>
		<rect id="SVGID_1_" width="36" height="16.4"/>
	</defs>
	<clipPath id="SVGID_2_">
		<use xlink:href="#SVGID_1_"  style="overflow:visible;"/>
	</clipPath>
	<path class="st0" d="M22.7,10.3c-0.1,0.8,1,1.5,1.9,1.3C24.1,11,23.3,10.8,22.7,10.3 M15.1,11.7c-0.3-0.4-0.5-0.8-0.8-1.2
		c0,0-0.1-0.1-0.1-0.1c-0.3,0-0.6,0-0.9,0.1C13.4,11,14.4,11.6,15.1,11.7 M14.8,10.3c0,1,2.6,2.1,3.3,1.6c-0.5-0.4-1-0.7-1.4-1.1
		C16.1,10.2,15.6,10,14.8,10.3 M30.2,10.4c0.1,1.2,0.8,1.7,2,2.2c0.5,0.2,1.3-0.1,1.7-0.6c-0.7-0.3-1.4-0.6-2.1-0.9
		c-0.2,0.4-0.4,0.5-0.7,0.2c-0.1-0.1-0.2-0.2-0.3-0.3C30.6,10.7,30.4,10.6,30.2,10.4 M16,12.1c0.8,1.2,3.2,2.2,4.5,1.4
		c-0.4-0.3-0.9-0.6-1.3-0.9c-0.3-0.2-0.6-0.3-1-0.1c-0.1,0.1-0.2,0.1-0.3,0c-0.4-0.1-0.8-0.2-1.2-0.3C16.4,12.2,16.2,12.1,16,12.1
		 M21.8,10c0.1,0.5,0.2,1,0.2,1.4c0.1,0.6,0.5,0.9,1,1.1c0.1,0,0.2,0.1,0.3,0.1c0.9,0.3,1.8,0.6,2.7,0.9c0.4,0.1,0.8,0.1,1.3-0.3
		c-0.8-0.5-1.5-1-2.3-1.5c0.1,0.5-0.2,0.5-0.4,0.4c-0.3-0.1-0.7-0.2-1-0.3c-0.9-0.3-1.2-0.7-1.1-1.7C22.2,10.1,22.1,10.1,21.8,10
		 M31.9,5.4c-0.2,1.1-0.5,2.1-0.7,3.1c0.1,0,0.1,0.1,0.2,0.1c0.2-0.1,0.5-0.2,0.6-0.4c0.6-1,1.2-1.9,1.2-3.1c0-0.5-0.1-0.7-0.6-0.6
		C32,4.7,31.5,5,31,5.5c-0.8,0.9-1,2-0.9,3.1c0,0.1,0.2,0.2,0.4,0.2c0.1,0,0.3-0.1,0.4-0.2C30.7,7.7,31.3,5.7,31.9,5.4 M7.5,11.6
		c0,0.1,0,0.1-0.1,0.2c0.2,0.2,0.3,0.3,0.5,0.5c0.3,0.3,0.6,0.6,0.9,0.9c0.6,0.5,1.2,0.8,2,0.7c0.1,0,0.2,0,0.3,0
		c0.1,0,0.1,0.1,0.2,0.2c-0.1,0.1-0.1,0.2-0.2,0.2c-0.5,0.2-2-0.2-2.5-0.6c-0.7-0.6-1.4-1.2-2-1.8c-0.4,0.2-0.7,0.4-1.1,0.5
		C6.2,13.2,7,13.8,8,14.2c1.3,0.4,2.7,0.7,4,0.5c0.4,0,0.8-0.5,1.2-0.8c0.2-0.2,0.1-0.4-0.2-0.5c-0.7-0.2-1.3-0.4-2-0.7
		c-0.7-0.3-1.4-0.7-2.1-0.9C8.5,11.7,8,11.7,7.5,11.6 M28,4.4c0-0.3-0.1-0.7-0.1-1c-0.1-0.9-0.2-0.9-1-0.6c-0.6,0.3-1.3,0.5-1.6,1.3
		c-0.2,0.4-0.3,0.8-0.5,1.2c-0.3,0.8-0.2,1.6-0.2,2.3c0,0.3,0.1,0.7,0.2,1c0,0.1,0.2,0.3,0.3,0.3c0.1,0,0.3,0,0.4-0.1
		c0.1-0.1,0-0.3,0-0.4c0-0.2-0.1-0.4,0-0.6c0.3-1.2,0.7-2.4,1.1-3.5c0-0.1,0.2-0.1,0.3-0.2c0,0.1,0.1,0.2,0.1,0.3
		c-0.2,0.8-0.4,1.5-0.6,2.2c-0.1,0.5-0.3,0.9-0.4,1.4c0,0.1,0.1,0.3,0.2,0.4c0.1-0.1,0.3-0.1,0.3-0.2c0.1-0.1,0.2-0.3,0.3-0.4
		C27.5,6.9,28,5.7,28,4.4 M6.1,9.9c0,0,0.1,0,0.1,0.1c0.5-0.6,1.1-1.2,1.4-1.9c0.3-0.5,0.4-1.2,0-1.8C7.6,6.1,7.5,5.9,7.5,5.7
		C7.4,4.7,7,4,6.1,3.5C5.9,3.4,5.8,3.4,5.7,3.6C5.6,4,5.6,4.3,5.5,4.6C5.4,5.4,5.1,6.2,4.9,7C4.7,7.6,4.4,8.2,4.4,8.8
		c-0.1,0.7,0,1.4,0.1,2.1c0,0.1,0.2,0.3,0.3,0.3c0.4,0,0.8-0.4,0.8-0.9c0-0.8,0-1.6,0.1-2.4C5.7,7.1,6,6.4,6.4,5.7
		c0.1-0.1,0.3-0.2,0.5-0.2c0.1,0,0.3,0.2,0.3,0.2C7.1,5.8,7,5.9,6.9,6.1C6.8,6.2,6.6,6.4,6.5,6.7C6.4,6.8,6.4,7.1,6.3,7.3
		C6,8.1,6.1,9,6.1,9.9 M17.8,8.1c0.4-0.1,0.7-0.2,1-0.3c0.3-0.1,0.3-0.2,0.3-0.5C19,6.6,19,5.9,19.3,5.2c0.3-0.7,0.5-1.4,0.7-2.1
		c0-0.1,0.2-0.3,0.3-0.4c0.1-0.1,0.2-0.1,0.3-0.1c0,0.1,0.1,0.2,0.1,0.3C20.4,3.5,20.2,4,20,4.6c-0.1,0.4-0.4,0.8-0.4,1.2
		c-0.1,0.5-0.2,1.1,0.2,1.7c0.4-0.3,0.7-0.5,1-0.7c0.6-0.5,0.9-1.1,0.9-1.9c-0.1-0.7,0-1.4-0.1-2.1c-0.1-0.6-0.2-1.2-0.7-1.7
		c-0.7,0.5-1.4,0.9-1.9,1.6c-0.2,0.3-0.4,0.6-0.5,1c-0.2,0.6-0.5,1.3-0.6,2c-0.1,0.7-0.1,1.3-0.1,2C17.7,7.7,17.8,7.9,17.8,8.1
		 M13.5,1.4c-0.2,0.3-0.3,0.4-0.4,0.6c-0.2,0.4-0.4,0.7-0.6,1.1c-0.3,0.5-0.7,0.9-1,1.4c-0.3,0.5-0.7,1.1-0.9,1.7
		c-0.2,0.6-0.4,1.3-0.3,2c0.1,0.4,0.6,0.9,0.9,0.9c0-0.3,0-0.6,0.1-0.9c0.4-1.3,0.8-2.6,1.2-4c0-0.1,0.2-0.2,0.3-0.4
		c0,0.1,0.1,0.3,0.1,0.4c-0.3,1.1-0.6,2.1-1,3.2c-0.1,0.4-0.2,0.8-0.4,1.3c0.3,0,0.4,0,0.6,0c1.1-0.3,1.9-1.5,2-2.6
		c0-0.6,0.2-1.2,0.2-1.9c0-0.4,0.1-0.8-0.1-1.2C14.3,2.5,13.9,2,13.5,1.4 M17,10.3c0.4,0.3,0.9,0.7,1.3,1c0.9,0.6,1.8,1.1,2.7,1.7
		c0.1,0.1,0.4,0.1,0.5,0.2c0.2,0.1,0.3,0.3,0.4,0.5c0,0-0.2,0.3-0.4,0.3c-1.1,0.4-2.2,0.5-3.3,0.2c-0.8-0.2-1.4-0.6-2.1-1.1
		c-0.7-0.5-1.6-0.9-2.4-1.3c-0.7-0.3-1-0.8-1.2-1.4c-0.9,0.2-1.8,0.4-2.8,0.6c0,0.1,0,0.1,0,0.2c0.8,0.3,1.6,0.7,2.3,1
		c0.5,0.2,1.1,0.5,1.6,0.8c0.1,0.1,0.2,0.1,0.3,0.2c0.1,0.1,0.3,0.1,0.3,0.2c0,0.2,0,0.4-0.1,0.5c-0.2,0.3-0.5,0.6-0.8,0.8
		c-0.4,0.2-0.8,0.5-1.2,0.5c-1.2,0.1-2.3,0-3.4-0.4c-0.6-0.2-1.3-0.4-1.9-0.7c-0.4-0.2-0.8-0.6-1.2-0.9c-0.9-0.7-0.9-0.7-1.7,0
		c-0.5,0.5-1.1,0.9-1.6,1.5c-0.3,0.3-0.4,0.8-0.4,1.2c-0.1,0.3-0.2,0.4-0.6,0.3c0-0.2,0-0.4,0-0.6c-0.1-0.2-0.2-0.4-0.3-0.5
		c-0.1-0.1-0.2-0.1-0.3-0.2c-0.9-0.5-1-0.7-0.6-1.6c0.1-0.2,0.3-0.3,0.5-0.4c0.5-0.3,1.1-0.5,1.6-0.7c0.5-0.2,1.1-0.5,1.6-0.8
		C4,11.6,4.1,11.3,4,11.2c-0.1-0.4-0.3-0.7-0.3-1.1c0-0.9,0-1.7,0.3-2.6c0.6-1.4,1-3,1.1-4.6c0-0.2,0.1-0.3,0.2-0.5
		c0.2,0.1,0.3,0.1,0.5,0.2c0.3,0.2,0.7,0.5,1,0.7C7.3,3.6,7.6,4,7.7,4.5C8,5.2,8.1,6,8.3,6.7c0.3,1-0.2,1.8-0.7,2.6
		C7.3,9.7,7,10.1,6.6,10.5c0,0,0,0.1,0,0.1c0.2,0,0.5,0.1,0.7,0.1c0.9-0.2,1.7-0.4,2.5-0.6c0.3-0.1,0.6-0.1,0.9-0.2
		c-0.3-0.4-0.5-0.8-0.8-1.1C9.7,8.3,9.7,7.8,9.8,7.4c0.3-1.5,1-2.8,1.9-4c0.5-0.7,0.9-1.4,1.4-2.2c0.1-0.2,0.1-0.4,0.2-0.7
		c0.2-0.3,0.4-0.4,0.6,0C14.2,1.2,14.7,2,15,2.8c0.2,0.6,0.1,1.3,0,1.9c0,0.3-0.1,0.7-0.1,1c-0.2,1.1-0.3,2.2-1.4,3
		c0.3,0.1,0.5,0.1,0.8,0.1c0.8,0.1,1.6,0.2,2.3,0.3c0.4,0,0.7-0.3,0.6-0.7c-0.1-0.2-0.1-0.4-0.1-0.5c0.1-1-0.1-2.1,0.4-3.1
		c0.2-0.4,0.2-0.9,0.4-1.3c0.2-0.9,0.8-1.7,1.6-2.3c0.4-0.3,0.8-0.7,1.2-1.1c0.2-0.2,0.5-0.2,0.6,0.1c0.4,1,1,2,0.8,3.1
		c-0.1,0.4,0,0.9,0.1,1.4c0.1,0.9-0.2,1.6-0.8,2.3c-0.7,0.8-1.5,1.2-2.5,1.6c0.2,0,0.5,0.1,0.7,0.1c1,0,1.9,0.1,2.9,0.1
		c0.4,0,0.9,0,1.3,0c0.3,0,0.4-0.1,0.4-0.4c-0.1-0.9-0.1-1.8,0-2.6c0.1-0.9,0.4-1.9,1-2.6c0.4-0.5,1.1-0.7,1.7-1
		c0.2-0.1,0.4-0.2,0.6-0.3c0.3-0.2,0.6-0.2,0.7,0.2c0.7,1.8,0.6,3.6-0.3,5.3c-0.3,0.5-0.6,1-0.8,1.5c0.4,0.3,0.9,0.2,1.4,0.2
		c0.1,0,0.2,0,0.3,0c1-0.2,0.9-0.1,0.8-1c-0.1-0.9,0.1-1.7,0.7-2.4c0.3-0.4,0.4-0.9,0.9-1.1c0.5-0.2,1-0.5,1.5-0.7
		c0.2-0.1,0.5-0.1,0.7-0.2c0.4-0.1,0.6,0,0.6,0.4c0.1,1.4-0.2,2.7-1,3.8c-0.1,0.1-0.1,0.3-0.2,0.4c0,0,0.1,0.1,0.1,0.1
		c0.6-0.3,1.2-0.5,1.8-0.8c0.2-0.1,0.4-0.2,0.6,0.1c0.1,0.1,0.3,0.1,0.4,0.1c0.3,0,0.4,0.1,0.4,0.4c0,0.3-0.2,0.4-0.4,0.4
		c-0.7,0.1-1.4,0.2-2.1,0.4c-0.9,0.2-1.8,0.5-2.8,0.8c0.3,0.2,0.6,0.4,0.8,0.5c0.8,0.4,1.6,0.7,2.4,1c0.1,0.1,0.3,0.1,0.5,0.1
		c0.4,0.1,0.6,0.3,0.3,0.7c-0.6,0.8-1.4,1.2-2.4,1.1c-0.9-0.1-1.7-0.4-2.3-1.2c-0.3-0.5-0.6-1-0.8-1.6c-0.1-0.3-0.3-0.4-0.6-0.4
		c-0.6,0-1.3-0.1-1.9,0c-0.8,0.1-1.5,0-2.2,0c-0.3,0-0.5,0-0.8,0.1c0,0,0,0.1,0,0.1c0.3,0.2,0.6,0.5,1,0.7c0.6,0.4,1.2,0.8,1.9,1.1
		c0.6,0.4,1.3,0.7,1.9,1c0.1,0.1,0.2,0.2,0.2,0.3c0,0.1-0.1,0.3-0.2,0.4c-0.6,0.2-1.2,0.3-1.7,0.4c-1.4,0.3-2.5-0.4-3.6-1
		c-0.4-0.2-0.8-0.4-1.2-0.6c-0.4-0.2-0.5-0.6-0.6-1c-0.1-0.4-0.1-0.8-0.2-1.2c0-0.3-0.2-0.4-0.5-0.4c-0.6,0-1.3,0-1.9,0
		c-0.6,0-1.1,0.1-1.6,0.2C17.1,10.2,17,10.3,17,10.3"/>
</g>
</svg>
