<?xml version="1.0" encoding="UTF-8"?>
<svg width="34px" height="21px" viewBox="0 0 34 21" version="1.1" xmlns="http://www.w3.org/2000/svg" xmlns:xlink="http://www.w3.org/1999/xlink">
    <!-- Generator: Sketch 52.4 (67378) - http://www.bohemiancoding.com/sketch -->
    <title>Stroke 1</title>
    <desc>Created with Sketch.</desc>
    <g id="Page-1" stroke="none" stroke-width="1" fill="none" fill-rule="evenodd">
        <path d="M9.02596544,8 L4,8 L4,4 L8.56174119,4 C13.3649863,4 12.77196,8 9.02596544,8 Z M24,11 L30,11 C29.736211,7.14300191 24.6043165,6.85950882 24,11 Z M8.74754893,12 L4,12 L4,17 L8.67231896,17 C13.2344797,16.9972083 12.9577409,12 8.74754893,12 Z M13.7034452,9.68788143 C17.7533481,7.63731473 17.6056158,0.112467306 9.84966962,0 L0,0 L0,21 L9.15685603,21 C18.7696445,21 18.6066296,11.4559721 13.7034452,9.68788143 Z M22,2.7075 L32,2.7075 L32,0.2925 L22,0.2925 L22,2.7075 Z M33.862637,11.1151967 C32.5234287,2.87891574 19,2.39337637 19,13.1646839 C19,23.8005516 31.7173283,22.1369404 33.605097,16.8317839 L29.0698165,16.8317839 C27.4859451,18.5899475 22.9120336,18.0788534 23.1669982,14.0488767 L33.9939825,14.0488767 C34.0171611,12.7430313 33.9733793,11.8077292 33.862637,11.1151967 Z" id="Stroke-1" fill="#000000"></path>
    </g>
</svg>