<?xml version="1.0" encoding="UTF-8"?>
<svg width="25px" height="25px" viewBox="0 0 25 25" version="1.1" xmlns="http://www.w3.org/2000/svg" xmlns:xlink="http://www.w3.org/1999/xlink">
    <!-- Generator: Sketch 52.4 (67378) - http://www.bohemiancoding.com/sketch -->
    <title>Fill 23</title>
    <desc>Created with Sketch.</desc>
    <g id="Page-1" stroke="none" stroke-width="1" fill="none" fill-rule="evenodd">
        <path d="M22.1923077,23 L2.80769231,23 C2.36184615,23 2,22.636 2,22.1875 L2,10 L5.23076923,10 C4.80996154,10.609375 4.66780769,11.7460625 4.66780769,12.4675625 C4.66780769,16.8185 8.195,20.3585625 12.5298846,20.3585625 C16.8655769,20.3585625 20.3927692,16.8185 20.3927692,12.4675625 C20.3927692,11.7460625 20.291,10.6264375 19.7692308,10 L23,10 L23,22.1875 C23,22.636 22.6381538,23 22.1923077,23 M12.9995937,8 C15.7614366,8 18,10.2387817 18,12.9995928 C18,15.7612183 15.7614366,18 12.9995937,18 C10.2385634,18 8,15.7612183 8,12.9995928 C8,10.2387817 10.2385634,8 12.9995937,8 M18.8,3 L21.2,3 C21.6416,3 22,3.3584 22,3.8 L22,6.2 C22,6.6416 21.6416,7 21.2,7 L18.8,7 C18.3584,7 18,6.6416 18,6.2 L18,3.8 C18,3.3584 18.3584,3 18.8,3 M22.028125,0 L2.971875,0 C1.33046875,0 0,1.32734375 0,2.96484375 L0,22.0351563 C0,23.6726563 1.33046875,25 2.971875,25 L22.028125,25 C23.6695313,25 25,23.6726563 25,22.0351563 L25,2.96484375 C25,1.32734375 23.6695313,0 22.028125,0" id="Fill-23" fill="#000000"></path>
    </g>
</svg>