<?xml version="1.0" encoding="UTF-8"?>
<svg width="24px" height="20px" viewBox="0 0 24 20" version="1.1" xmlns="http://www.w3.org/2000/svg" xmlns:xlink="http://www.w3.org/1999/xlink">
    <!-- Generator: Sketch 52.4 (67378) - http://www.bohemiancoding.com/sketch -->
    <title>Fill 1</title>
    <desc>Created with Sketch.</desc>
    <g id="Page-1" stroke="none" stroke-width="1" fill="none" fill-rule="evenodd">
        <path d="M24,2.36723707 C23.11725,2.76869833 22.16775,3.04018458 21.17175,3.16246876 C22.18875,2.53720438 22.9695,1.54816381 23.337,0.369159777 C22.386,0.947510094 21.3315,1.36742934 20.21025,1.59430879 C19.31175,0.612959046 18.03225,0 16.61625,0 C13.89675,0 11.6925,2.26033455 11.6925,5.04902903 C11.6925,5.44433763 11.736,5.82964814 11.82,6.199577 C7.72725,5.9888483 4.0995,3.97846568 1.671,0.923668525 C1.24725,1.66967891 1.00425,2.53720438 1.00425,3.46241107 C1.00425,5.21361277 1.8735,6.75946933 3.19425,7.66467987 C2.38725,7.63853105 1.62825,7.41165161 0.9645,7.03326283 C0.96375,7.05479715 0.96375,7.07556239 0.96375,7.09709671 C0.96375,9.54354932 2.661,11.5839262 4.914,12.0476831 C4.50075,12.1630456 4.06575,12.2245722 3.6165,12.2245722 C3.29925,12.2245722 2.991,12.1930398 2.69025,12.1345895 C3.3165,14.1403576 5.13525,15.6000769 7.29,15.6408383 C5.60475,16.9951932 3.4815,17.8019612 1.1745,17.8019612 C0.777,17.8019612 0.3855,17.7781196 0,17.7319746 C2.17875,19.1640069 4.767,20 7.548,20 C16.605,20 21.55725,12.306095 21.55725,5.6343011 C21.55725,5.41511248 21.55275,5.19746203 21.543,4.98058066 C22.50525,4.269179 23.34,3.38011921 24,2.36723707" id="Fill-1" fill="#000000"></path>
    </g>
</svg>